# xmcd
#
# Track frame offsets: 
#        150
#        12443
#        25226
#        38416
#        48399
#        60982
#        77148
#        88001
#        99616
#        110841
#        125485
#        136928
#        149693
#        160565
#        172015
#        185670
#        198780
#        210146
#        222504
#        236437
#
# Disc length: 3314 seconds
#
# Revision: 0
# Processed by: cddbd v1.5.1PL2 Copyright (c) Steve Scherf et al.
# Submitted via: ExactAudioCopy v0.95b3
#
DISCID=120cf014
DTITLE=Various Artist - Motown - Selected Few
DYEAR=2006
DGENRE=Motown
TTITLE0=Four Tops - Baby I need your loving
TTITLE1=Marvin Gaye - Can I get a witness
TTITLE2=Temptations - Forever in my heart
TTITLE3=Velvelettes - Lonely, lonely girl am I
TTITLE4=Spinners - I'll always love you
TTITLE5=Gladys Knight and The Pips - Here are the pieces of my broken he
TTITLE5=art
TTITLE6=Shorty Long - Baby come home to me
TTITLE7=Isley Brothers - Why when love is gone
TTITLE8=Marvelettes - I'll keep holding on
TTITLE9=Marvin Gaye - When I feel the need
TTITLE10=Elgins - Heaven must have sent you
TTITLE11=Isley Brothers - This old heart of mine
TTITLE12=Chris Clark - Love's gone bad
TTITLE13=Velvelettes - Needle in a haystack
TTITLE14=Supremes - I'm living in shame
TTITLE15=Martha and The Vandellas - Jimmy Mack
TTITLE16=Eddie Holland - Leaving here
TTITLE17=Four Tops - I can't help myself
TTITLE18=Edwin Starr and Blinky - I'm glad you belong to me
TTITLE19=Marvin Gaye - This love starved heart of mine
EXTD=
EXTT0=
EXTT1=
EXTT2=
EXTT3=
EXTT4=
EXTT5=
EXTT6=
EXTT7=
EXTT8=
EXTT9=
EXTT10=
EXTT11=
EXTT12=
EXTT13=
EXTT14=
EXTT15=
EXTT16=
EXTT17=
EXTT18=
EXTT19=
PLAYORDER=
